<?xml version="1.0" ?><!DOCTYPE svg  PUBLIC '-//W3C//DTD SVG 1.1//EN'  'http://www.w3.org/Graphics/SVG/1.1/DTD/svg11.dtd'><svg enable-background="new 0 0 64 64" height="64px" id="Meetup" version="1.1" viewBox="0 0 64 64" width="64px" xml:space="preserve" xmlns="http://www.w3.org/2000/svg" xmlns:xlink="http://www.w3.org/1999/xlink"><linearGradient gradientTransform="matrix(1 0 0 -1 -1370 -1753)" gradientUnits="userSpaceOnUse" id="Circle_Shadow_1_" x1="1434.0303" x2="1402.0295" y1="-1816.9995" y2="-1784.9989"><stop offset="0.3163" style="stop-color:#FFFFFF;stop-opacity:0"/><stop offset="0.3508" style="stop-color:#E9E9E9;stop-opacity:0.0504"/><stop offset="0.4543" style="stop-color:#ACACAC;stop-opacity:0.2018"/><stop offset="0.5572" style="stop-color:#787878;stop-opacity:0.3523"/><stop offset="0.6569" style="stop-color:#4D4D4D;stop-opacity:0.4981"/><stop offset="0.7528" style="stop-color:#2B2B2B;stop-opacity:0.6385"/><stop offset="0.8441" style="stop-color:#131313;stop-opacity:0.7719"/><stop offset="0.9286" style="stop-color:#050505;stop-opacity:0.8956"/><stop offset="1" style="stop-color:#000000"/></linearGradient><polygon enable-background="new    " fill="url(#Circle_Shadow_1_)" id="Circle_Shadow" opacity="0.2" points="64.029,64   64.029,30.059 49,15.029 15.059,48.971 30.088,64 "/><circle cx="32" cy="32" fill="#E71E27" id="Circle" r="24"/><g id="M_shadow"><g><defs><circle cx="32.029" cy="32" id="SVGID_1_" r="24"/></defs><clipPath id="SVGID_2_"><use overflow="visible" xlink:href="#SVGID_1_"/></clipPath><g clip-path="url(#SVGID_2_)" enable-background="new    " opacity="0.5"><linearGradient gradientTransform="matrix(1 0 0 -1 -274 -299)" gradientUnits="userSpaceOnUse" id="SVGID_3_" x1="328.0352" x2="328.0022" y1="-375.9702" y2="-375.9373"><stop offset="0.5255" style="stop-color:#000000;stop-opacity:0"/><stop offset="0.5792" style="stop-color:#000000;stop-opacity:0.1133"/><stop offset="1" style="stop-color:#000000"/></linearGradient><path d="M54.018,76.952C53.826,77.032,54.208,76.878,54.018,76.952L54.018,76.952z" fill="url(#SVGID_3_)"/><linearGradient gradientTransform="matrix(1 0 0 -1 -274 -299)" gradientUnits="userSpaceOnUse" id="SVGID_4_" x1="351.3906" x2="293.3257" y1="-378.5771" y2="-320.5122"><stop offset="0.5255" style="stop-color:#000000;stop-opacity:0"/><stop offset="0.5792" style="stop-color:#000000;stop-opacity:0.1133"/><stop offset="1" style="stop-color:#000000"/></linearGradient><path d="M79.02,77.516c-2.002-6.89-2.768-11.22-4.002-16.563c-0.703-3.053-1-4-2-8     c-0.229-0.791-0.906-3.229-1.607-3.864c-0.036-0.041-0.071-0.073-0.105-0.106c-0.037-0.041-0.072-0.074-0.107-0.106     c-0.035-0.04-0.071-0.073-0.106-0.104c-0.036-0.041-0.071-0.076-0.108-0.107c-0.033-0.04-0.068-0.072-0.104-0.104     c-0.036-0.041-0.07-0.074-0.105-0.106c-0.037-0.041-0.071-0.074-0.106-0.106c-0.035-0.039-0.069-0.072-0.104-0.104     c-0.037-0.041-0.072-0.075-0.107-0.106c-0.037-0.043-0.073-0.076-0.109-0.109c-0.033-0.038-0.066-0.068-0.101-0.1     c-0.037-0.044-0.075-0.08-0.112-0.113c-0.033-0.039-0.068-0.07-0.104-0.103c-0.034-0.04-0.068-0.073-0.104-0.104     c-0.037-0.043-0.074-0.078-0.111-0.111c-0.033-0.038-0.067-0.069-0.102-0.1c-0.036-0.043-0.072-0.078-0.107-0.11     c-0.037-0.041-0.072-0.075-0.109-0.108c-0.034-0.039-0.069-0.072-0.104-0.104c-0.035-0.04-0.07-0.073-0.105-0.105     c-0.036-0.041-0.071-0.074-0.105-0.105c-0.037-0.041-0.072-0.074-0.106-0.106c-0.036-0.041-0.071-0.073-0.106-0.106     c-0.035-0.041-0.07-0.073-0.105-0.105c-0.036-0.041-0.072-0.074-0.107-0.107c-0.035-0.039-0.07-0.072-0.105-0.104     c-0.037-0.041-0.072-0.075-0.108-0.106c-0.034-0.041-0.069-0.072-0.104-0.104c-0.035-0.041-0.07-0.074-0.105-0.106     c-0.036-0.041-0.071-0.074-0.105-0.105c-0.037-0.041-0.072-0.075-0.107-0.107c-0.036-0.041-0.072-0.074-0.108-0.107     c-0.034-0.038-0.069-0.07-0.104-0.104c-0.035-0.041-0.07-0.074-0.105-0.105c-0.035-0.041-0.07-0.073-0.105-0.105     c-0.035-0.041-0.071-0.074-0.107-0.107c-0.034-0.039-0.068-0.071-0.104-0.104c-0.037-0.043-0.073-0.078-0.11-0.111     c-0.035-0.039-0.07-0.072-0.104-0.104c-0.035-0.04-0.068-0.072-0.104-0.104c-0.037-0.045-0.074-0.08-0.112-0.113     c-0.033-0.038-0.066-0.069-0.101-0.1c-0.036-0.041-0.071-0.076-0.107-0.107c-0.036-0.042-0.071-0.076-0.108-0.109     c-0.033-0.039-0.067-0.07-0.103-0.102c-0.036-0.043-0.073-0.078-0.11-0.111c-0.035-0.039-0.068-0.07-0.104-0.104     c-0.035-0.041-0.071-0.074-0.106-0.106c-0.035-0.041-0.07-0.074-0.106-0.106c-0.035-0.041-0.07-0.074-0.104-0.105     c-0.037-0.041-0.072-0.074-0.106-0.105c-0.036-0.041-0.071-0.074-0.106-0.106c-0.035-0.041-0.07-0.074-0.105-0.106     c-0.036-0.041-0.072-0.074-0.107-0.107c-0.035-0.04-0.072-0.073-0.107-0.105c-0.034-0.04-0.069-0.072-0.104-0.104     c-0.036-0.041-0.071-0.074-0.106-0.106c-0.035-0.041-0.07-0.073-0.105-0.106c-0.036-0.041-0.07-0.073-0.105-0.105     c-0.035-0.04-0.07-0.072-0.105-0.105c-0.036-0.041-0.073-0.076-0.109-0.107c-0.035-0.041-0.07-0.073-0.104-0.105     c-0.035-0.041-0.07-0.074-0.105-0.104c-0.036-0.042-0.071-0.076-0.108-0.108c-0.034-0.039-0.068-0.072-0.104-0.103     c-0.035-0.041-0.068-0.074-0.104-0.104c-0.037-0.043-0.075-0.08-0.112-0.113c-0.033-0.039-0.067-0.069-0.103-0.101     c-0.035-0.043-0.072-0.077-0.109-0.11c-0.034-0.041-0.069-0.072-0.104-0.104c-0.037-0.041-0.072-0.074-0.106-0.106     c-0.036-0.041-0.071-0.074-0.106-0.105c-0.035-0.041-0.07-0.074-0.105-0.105c-0.036-0.041-0.071-0.074-0.106-0.106     c-0.036-0.041-0.071-0.074-0.106-0.106c-0.035-0.041-0.07-0.074-0.106-0.105c-0.034-0.041-0.071-0.075-0.106-0.107     c-0.035-0.041-0.071-0.074-0.107-0.105c-0.034-0.041-0.068-0.072-0.104-0.104c-0.037-0.041-0.071-0.073-0.106-0.106     c-0.036-0.041-0.071-0.073-0.106-0.105c-0.035-0.041-0.07-0.074-0.105-0.105c-0.037-0.043-0.073-0.076-0.109-0.108     c-0.035-0.04-0.068-0.072-0.104-0.104c-0.036-0.041-0.071-0.074-0.106-0.105c-0.036-0.041-0.071-0.074-0.106-0.105     c-0.035-0.041-0.07-0.074-0.105-0.106c-0.035-0.041-0.07-0.074-0.105-0.106c-0.035-0.039-0.07-0.072-0.105-0.104     c-0.036-0.042-0.072-0.077-0.109-0.109c-0.033-0.04-0.067-0.072-0.104-0.104c-0.037-0.043-0.074-0.078-0.111-0.111     c-0.033-0.039-0.068-0.07-0.103-0.102c-0.035-0.043-0.071-0.075-0.107-0.107c-0.034-0.04-0.067-0.072-0.103-0.104     c-0.037-0.043-0.074-0.08-0.112-0.112c-0.032-0.038-0.065-0.069-0.101-0.101c-0.036-0.043-0.073-0.078-0.109-0.11     c-0.035-0.04-0.07-0.073-0.105-0.104c-0.035-0.042-0.071-0.074-0.106-0.107c-0.036-0.041-0.072-0.074-0.108-0.106     c-0.033-0.04-0.068-0.071-0.104-0.104c-0.036-0.041-0.071-0.073-0.105-0.105c-0.037-0.041-0.072-0.074-0.107-0.105     c-0.035-0.041-0.07-0.074-0.105-0.106c-0.037-0.042-0.072-0.076-0.109-0.108c-0.034-0.039-0.068-0.072-0.104-0.104     c-0.035-0.041-0.07-0.074-0.105-0.105c-0.037-0.041-0.071-0.074-0.106-0.106c-0.036-0.041-0.071-0.074-0.106-0.106     c-0.035-0.041-0.07-0.074-0.105-0.105c-0.035-0.04-0.071-0.074-0.105-0.106c-0.037-0.041-0.072-0.073-0.107-0.106     c-0.035-0.041-0.07-0.073-0.105-0.105c-0.035-0.041-0.072-0.074-0.109-0.107c-0.033-0.041-0.068-0.071-0.104-0.104     c-0.035-0.041-0.07-0.074-0.105-0.106c-0.034-0.039-0.068-0.07-0.104-0.103c-0.036-0.044-0.075-0.08-0.112-0.114     c-0.033-0.037-0.065-0.068-0.1-0.098c-0.038-0.045-0.076-0.081-0.113-0.115c-0.033-0.039-0.067-0.07-0.103-0.102     c-0.036-0.041-0.072-0.075-0.108-0.107c-0.033-0.04-0.068-0.072-0.104-0.104c-0.036-0.043-0.072-0.076-0.109-0.109     c-0.033-0.039-0.066-0.07-0.102-0.102c-0.036-0.043-0.072-0.076-0.108-0.109c-0.036-0.041-0.071-0.075-0.106-0.107     c-0.037-0.041-0.072-0.074-0.109-0.107c-0.034-0.039-0.068-0.07-0.104-0.102c-0.035-0.041-0.07-0.076-0.105-0.107     c-0.036-0.041-0.071-0.074-0.105-0.106c-0.037-0.041-0.072-0.073-0.106-0.106c-0.036-0.041-0.071-0.073-0.106-0.105     c-0.035-0.041-0.072-0.074-0.106-0.105c-0.035-0.041-0.071-0.074-0.106-0.106c-0.035-0.041-0.07-0.073-0.105-0.106     c-0.036-0.041-0.072-0.074-0.108-0.106c-0.034-0.04-0.069-0.072-0.104-0.104c-0.035-0.041-0.07-0.074-0.105-0.105     c-0.035-0.04-0.068-0.072-0.104-0.104c-0.037-0.045-0.074-0.08-0.112-0.113c-0.035-0.04-0.07-0.072-0.104-0.104     c-0.035-0.038-0.07-0.071-0.104-0.104c-0.035-0.039-0.07-0.072-0.104-0.104c-0.037-0.041-0.072-0.075-0.109-0.106     c-0.033-0.041-0.067-0.072-0.104-0.104c-0.035-0.043-0.072-0.078-0.109-0.11c-0.034-0.041-0.069-0.071-0.104-0.104     c-0.036-0.043-0.071-0.077-0.108-0.109c-0.035-0.039-0.068-0.07-0.104-0.103c-0.036-0.043-0.073-0.078-0.109-0.111     c-0.035-0.04-0.07-0.071-0.104-0.104c-0.037-0.042-0.073-0.076-0.11-0.109c-0.033-0.038-0.066-0.069-0.101-0.101     c-0.037-0.043-0.073-0.078-0.11-0.111c-0.035-0.039-0.068-0.071-0.104-0.103c-0.037-0.042-0.073-0.077-0.11-0.11     c-0.034-0.04-0.069-0.073-0.104-0.104c-0.035-0.041-0.069-0.074-0.104-0.105c-0.036-0.041-0.071-0.075-0.106-0.106     c-0.035-0.041-0.07-0.075-0.105-0.107c-0.036-0.041-0.071-0.075-0.107-0.107c-0.035-0.041-0.07-0.073-0.104-0.105     c-0.036-0.042-0.072-0.076-0.108-0.108c-0.035-0.04-0.068-0.073-0.104-0.104c-0.036-0.042-0.071-0.076-0.107-0.108     c-0.035-0.041-0.07-0.075-0.107-0.107c-0.034-0.04-0.068-0.072-0.104-0.104c-0.035-0.041-0.07-0.074-0.105-0.106     c-0.037-0.042-0.071-0.075-0.107-0.107c-0.034-0.04-0.068-0.073-0.104-0.104c-0.037-0.043-0.074-0.079-0.112-0.112     c-0.034-0.04-0.068-0.071-0.103-0.102c-0.037-0.042-0.072-0.076-0.107-0.108c-0.034-0.04-0.068-0.071-0.104-0.103     c-0.037-0.043-0.074-0.079-0.111-0.112c-0.034-0.04-0.069-0.072-0.104-0.103c-0.034-0.04-0.069-0.072-0.104-0.104     c-0.036-0.043-0.072-0.078-0.109-0.111c-0.035-0.04-0.068-0.072-0.104-0.104c-0.037-0.042-0.072-0.076-0.108-0.109     c-0.035-0.041-0.07-0.074-0.106-0.105c-0.033-0.04-0.068-0.073-0.104-0.104c-0.035-0.042-0.071-0.075-0.107-0.107     c-0.035-0.041-0.07-0.074-0.105-0.106c-0.035-0.041-0.071-0.075-0.107-0.107c-0.035-0.041-0.07-0.074-0.105-0.105     c-0.034-0.04-0.069-0.073-0.104-0.104c-0.036-0.041-0.071-0.075-0.106-0.107c-0.037-0.042-0.072-0.077-0.109-0.109     c-0.035-0.041-0.07-0.073-0.105-0.105c-0.033-0.04-0.067-0.072-0.104-0.104c-0.036-0.042-0.072-0.076-0.107-0.108     c-0.035-0.04-0.068-0.073-0.104-0.104c-0.037-0.044-0.075-0.081-0.113-0.114c-0.033-0.038-0.066-0.068-0.1-0.098     c-0.036-0.042-0.073-0.078-0.11-0.11c-0.034-0.041-0.069-0.074-0.104-0.106c-0.034-0.04-0.068-0.071-0.104-0.103     c-0.037-0.043-0.073-0.079-0.11-0.112c-0.035-0.04-0.068-0.072-0.104-0.103c-0.035-0.041-0.069-0.074-0.104-0.106     c-0.037-0.042-0.074-0.078-0.11-0.111c-0.033-0.039-0.067-0.07-0.101-0.1c-0.037-0.043-0.076-0.079-0.113-0.112     c-0.032-0.039-0.066-0.07-0.1-0.101c-0.037-0.042-0.074-0.077-0.109-0.109c-0.035-0.041-0.07-0.074-0.106-0.106     c-0.036-0.042-0.071-0.076-0.108-0.109c-0.033-0.039-0.068-0.071-0.104-0.102c-0.035-0.041-0.07-0.075-0.105-0.107     c-0.037-0.041-0.071-0.075-0.106-0.106c-0.036-0.041-0.071-0.075-0.106-0.107c-0.035-0.042-0.072-0.075-0.107-0.108     c-0.034-0.039-0.068-0.071-0.104-0.102c-0.037-0.043-0.072-0.078-0.109-0.111c-0.036-0.041-0.071-0.074-0.107-0.106     c-0.033-0.04-0.068-0.072-0.104-0.104c-0.035-0.041-0.07-0.074-0.105-0.106c-0.036-0.041-0.07-0.075-0.105-0.106     c-0.037-0.041-0.071-0.075-0.106-0.106c-0.036-0.041-0.071-0.075-0.106-0.106c-0.035-0.041-0.069-0.074-0.105-0.106     c-0.036-0.042-0.072-0.076-0.107-0.109c-0.035-0.039-0.068-0.071-0.104-0.102c-0.037-0.042-0.074-0.078-0.111-0.111     c-0.033-0.04-0.068-0.072-0.104-0.104c-0.035-0.042-0.071-0.075-0.107-0.107c-0.033-0.04-0.068-0.072-0.104-0.104     c-0.036-0.042-0.072-0.076-0.108-0.108c-0.034-0.04-0.069-0.072-0.104-0.104c-0.035-0.042-0.07-0.076-0.106-0.108     c-0.035-0.041-0.069-0.073-0.104-0.105c-0.037-0.041-0.071-0.075-0.106-0.107c-0.036-0.041-0.072-0.075-0.106-0.107     c-0.037-0.041-0.072-0.075-0.107-0.107c-0.035-0.041-0.07-0.073-0.105-0.105c-0.035-0.041-0.07-0.073-0.104-0.105     c-0.037-0.042-0.073-0.076-0.109-0.109c-0.035-0.041-0.07-0.073-0.105-0.105c-0.034-0.041-0.07-0.075-0.105-0.107     c-0.035-0.041-0.07-0.073-0.105-0.105c-0.035-0.041-0.07-0.075-0.105-0.107c-0.036-0.041-0.072-0.075-0.107-0.107     c-0.035-0.041-0.069-0.074-0.105-0.105c-0.035-0.042-0.071-0.075-0.107-0.108c-0.035-0.041-0.07-0.073-0.104-0.105     c-0.035-0.041-0.07-0.074-0.106-0.105c-0.035-0.041-0.07-0.074-0.104-0.106c-0.035-0.041-0.07-0.074-0.105-0.106     c-0.036-0.042-0.071-0.076-0.108-0.108c-0.035-0.041-0.07-0.074-0.106-0.106c-0.032-0.039-0.067-0.07-0.103-0.102     c-0.036-0.043-0.074-0.08-0.111-0.113c-0.035-0.041-0.071-0.074-0.105-0.105c-0.033-0.039-0.067-0.069-0.102-0.1     c-0.037-0.043-0.074-0.079-0.111-0.112c-0.033-0.04-0.068-0.072-0.104-0.103c-0.036-0.042-0.073-0.078-0.11-0.11     c-0.034-0.039-0.067-0.071-0.103-0.102c-0.035-0.042-0.071-0.077-0.108-0.109c-0.034-0.041-0.071-0.074-0.106-0.106     c-0.035-0.04-0.068-0.072-0.104-0.104c-0.035-0.041-0.07-0.075-0.105-0.106c-0.037-0.042-0.072-0.076-0.108-0.108     c-0.035-0.041-0.07-0.074-0.104-0.105c-0.037-0.042-0.072-0.076-0.108-0.108c-0.034-0.04-0.069-0.072-0.104-0.103     c-0.035-0.042-0.072-0.076-0.106-0.108c-0.035-0.04-0.07-0.073-0.104-0.104c-0.035-0.042-0.072-0.076-0.109-0.109     c-0.034-0.041-0.069-0.073-0.104-0.105c-0.034-0.041-0.069-0.074-0.104-0.106c-0.036-0.042-0.071-0.075-0.107-0.107     c-0.035-0.041-0.07-0.073-0.105-0.105c-0.035-0.041-0.07-0.075-0.106-0.107c-0.035-0.041-0.071-0.074-0.106-0.106     c-0.035-0.041-0.07-0.074-0.106-0.106c-0.033-0.039-0.067-0.071-0.103-0.102c-0.037-0.043-0.074-0.08-0.111-0.113     c-0.035-0.04-0.069-0.072-0.104-0.103c-0.034-0.041-0.069-0.074-0.106-0.106c-0.034-0.041-0.07-0.075-0.105-0.107     c-0.035-0.04-0.068-0.072-0.104-0.104c-0.036-0.041-0.071-0.075-0.107-0.107c-0.037-0.043-0.072-0.078-0.109-0.111     c-0.035-0.039-0.068-0.07-0.103-0.101c-0.036-0.042-0.072-0.076-0.108-0.108c-0.035-0.041-0.07-0.073-0.104-0.105     c-0.037-0.042-0.073-0.077-0.11-0.11c-0.034-0.039-0.067-0.071-0.103-0.102c-0.036-0.043-0.073-0.078-0.11-0.111     c-0.034-0.04-0.069-0.072-0.104-0.103c-0.035-0.042-0.07-0.075-0.106-0.107c-0.035-0.041-0.071-0.075-0.106-0.107     c-0.035-0.041-0.069-0.074-0.105-0.105c-0.035-0.042-0.07-0.075-0.107-0.108c-0.035-0.04-0.07-0.073-0.104-0.105     c-0.035-0.041-0.07-0.074-0.106-0.106c-0.103-0.119-0.205-0.205-0.31-0.242c-1.375,0-2.615-0.011-4,0     c-0.49,0.003-2.013,2.581-2.188,3c-0.965,2.314-1.313,3.596-2,6c-0.278,0.976-0.543,1.989-0.807,3.003     c-0.029-0.031-0.06-0.06-0.091-0.088c-0.034-0.038-0.07-0.073-0.106-0.106c-0.034-0.038-0.07-0.072-0.105-0.106     c-0.035-0.038-0.071-0.073-0.107-0.107c-0.034-0.038-0.07-0.072-0.106-0.106c-0.035-0.038-0.071-0.074-0.108-0.108     c-0.033-0.036-0.068-0.07-0.103-0.103c-0.036-0.039-0.073-0.076-0.11-0.11c-0.034-0.037-0.069-0.071-0.105-0.104     c-0.034-0.038-0.07-0.073-0.107-0.107c-0.034-0.037-0.069-0.072-0.105-0.105c-0.035-0.038-0.071-0.074-0.108-0.108     c-0.033-0.037-0.069-0.071-0.104-0.104c-0.035-0.039-0.072-0.075-0.109-0.109c-0.034-0.038-0.069-0.072-0.105-0.105     c-0.034-0.037-0.069-0.071-0.105-0.104c-0.034-0.038-0.07-0.073-0.107-0.107c-0.035-0.038-0.071-0.074-0.108-0.107     c-0.034-0.037-0.069-0.071-0.104-0.104c-0.034-0.038-0.071-0.073-0.107-0.107c-0.034-0.038-0.069-0.072-0.105-0.105     c-0.035-0.038-0.071-0.074-0.108-0.108c-0.034-0.037-0.069-0.072-0.105-0.105c-0.034-0.038-0.07-0.073-0.106-0.106     c-0.035-0.039-0.072-0.075-0.109-0.109c-0.033-0.037-0.068-0.071-0.104-0.104c-0.034-0.038-0.07-0.072-0.106-0.106     c-0.034-0.038-0.071-0.074-0.107-0.107c-0.034-0.037-0.069-0.072-0.105-0.105c-0.034-0.038-0.07-0.072-0.106-0.106     c-0.034-0.038-0.07-0.073-0.107-0.107c-0.034-0.038-0.071-0.073-0.107-0.106c-0.034-0.038-0.07-0.072-0.106-0.106     c-0.034-0.038-0.07-0.073-0.106-0.106c-0.034-0.038-0.07-0.072-0.106-0.105c-0.034-0.038-0.07-0.073-0.106-0.106     c-0.034-0.038-0.071-0.074-0.107-0.107c-0.034-0.038-0.071-0.073-0.107-0.107c-0.034-0.038-0.07-0.072-0.106-0.105     c-0.034-0.038-0.07-0.072-0.105-0.105c-0.034-0.038-0.07-0.073-0.107-0.107c-0.034-0.037-0.07-0.072-0.106-0.104     c-0.034-0.038-0.07-0.073-0.106-0.107c-0.034-0.038-0.07-0.073-0.106-0.106c-0.034-0.038-0.07-0.072-0.106-0.106     c-0.034-0.038-0.07-0.073-0.107-0.107c-0.034-0.037-0.069-0.072-0.105-0.105c-0.035-0.038-0.071-0.074-0.108-0.107     c-0.034-0.038-0.069-0.072-0.105-0.105c-0.034-0.038-0.07-0.073-0.106-0.107c-0.034-0.038-0.07-0.073-0.107-0.106     c-0.034-0.038-0.07-0.073-0.106-0.106c-0.034-0.038-0.07-0.072-0.106-0.106c-0.034-0.038-0.07-0.073-0.106-0.106     c-0.034-0.038-0.07-0.072-0.106-0.106c-0.034-0.038-0.07-0.073-0.106-0.106c-0.035-0.038-0.071-0.073-0.107-0.107     c-0.034-0.038-0.07-0.073-0.106-0.106c-0.034-0.038-0.07-0.073-0.106-0.106c-0.034-0.037-0.069-0.072-0.105-0.105     c-0.035-0.038-0.071-0.073-0.107-0.107c-0.034-0.037-0.07-0.072-0.105-0.105c-0.484-0.533-1.149-0.671-2.612-0.43     c-0.706,0.114-2.351,0.708-3,1c-0.323,0.146-1,0.75-1,2c0,5.875,0,11.375,1,17c0.317,2.076,0.354,3.194,0.846,3.592     c0.033,0.039,0.068,0.076,0.106,0.105c0.033,0.04,0.068,0.076,0.106,0.106c0.033,0.04,0.068,0.075,0.106,0.106     c0.033,0.039,0.069,0.075,0.107,0.106c0.033,0.039,0.068,0.073,0.105,0.104c0.033,0.039,0.069,0.075,0.107,0.106     c0.033,0.039,0.068,0.075,0.105,0.104c0.033,0.041,0.069,0.076,0.107,0.106c0.033,0.04,0.068,0.076,0.106,0.106     c0.033,0.039,0.068,0.076,0.106,0.105c0.033,0.04,0.069,0.076,0.107,0.107c0.033,0.039,0.069,0.074,0.106,0.104     c0.033,0.039,0.068,0.075,0.106,0.104c0.033,0.041,0.068,0.076,0.106,0.107c0.033,0.039,0.069,0.075,0.107,0.106     c0.032,0.038,0.067,0.073,0.104,0.104c0.033,0.039,0.069,0.075,0.107,0.106c0.033,0.04,0.069,0.075,0.107,0.106     c0.033,0.039,0.068,0.075,0.106,0.105c0.033,0.04,0.069,0.076,0.107,0.105c0.033,0.041,0.068,0.076,0.105,0.105     c0.033,0.04,0.069,0.076,0.106,0.105c0.033,0.041,0.068,0.076,0.106,0.106c0.033,0.04,0.069,0.076,0.107,0.106     c0.033,0.039,0.068,0.076,0.106,0.105c0.032,0.039,0.067,0.075,0.105,0.105c0.033,0.039,0.07,0.076,0.108,0.107     c0.033,0.039,0.068,0.075,0.106,0.105c0.033,0.039,0.068,0.074,0.106,0.105c0.033,0.039,0.068,0.075,0.106,0.105     c0.033,0.04,0.068,0.076,0.106,0.107c0.033,0.039,0.068,0.074,0.106,0.104c0.033,0.039,0.068,0.075,0.106,0.104     c0.033,0.041,0.068,0.078,0.107,0.107c0.033,0.04,0.069,0.076,0.107,0.107c0.032,0.037,0.067,0.074,0.104,0.104     c0.033,0.039,0.068,0.076,0.107,0.105c0.033,0.041,0.069,0.076,0.107,0.107c0.033,0.039,0.068,0.075,0.105,0.105     c0.033,0.039,0.069,0.074,0.107,0.105c0.033,0.039,0.068,0.075,0.105,0.105c0.033,0.04,0.069,0.076,0.107,0.107     c0.033,0.039,0.068,0.074,0.106,0.104c0.033,0.04,0.068,0.075,0.105,0.106c0.033,0.039,0.069,0.075,0.108,0.106     c0.033,0.039,0.068,0.075,0.105,0.104c0.033,0.041,0.069,0.076,0.108,0.107c0.032,0.039,0.067,0.075,0.105,0.105     c0.032,0.039,0.068,0.074,0.105,0.104c0.033,0.04,0.069,0.076,0.108,0.106c0.033,0.039,0.068,0.076,0.105,0.105     c0.033,0.04,0.068,0.076,0.106,0.106c0.033,0.04,0.069,0.075,0.107,0.106c0.033,0.039,0.068,0.075,0.106,0.105     c0.033,0.04,0.068,0.074,0.106,0.105c0.033,0.039,0.068,0.075,0.106,0.106c0.033,0.039,0.068,0.075,0.106,0.104     c0.033,0.041,0.069,0.076,0.107,0.107c0.033,0.039,0.068,0.075,0.106,0.105c0.033,0.039,0.068,0.076,0.106,0.105     c0.033,0.04,0.069,0.076,0.107,0.107c0.033,0.039,0.068,0.074,0.105,0.104c0.033,0.039,0.069,0.075,0.107,0.106     c0.033,0.039,0.068,0.074,0.106,0.105c0.033,0.039,0.068,0.075,0.106,0.105c0.033,0.04,0.069,0.076,0.107,0.107     c0.032,0.039,0.067,0.074,0.105,0.104c0.033,0.04,0.07,0.077,0.108,0.106c0.032,0.039,0.066,0.074,0.104,0.104     c0.034,0.041,0.07,0.078,0.109,0.108c0.033,0.039,0.068,0.076,0.105,0.105c0.033,0.039,0.068,0.075,0.105,0.105     c0.033,0.039,0.069,0.076,0.108,0.106c0.032,0.039,0.067,0.075,0.105,0.104c0.033,0.041,0.069,0.076,0.108,0.107     c0.033,0.039,0.068,0.075,0.106,0.105c0.033,0.039,0.068,0.076,0.106,0.107c0.033,0.038,0.068,0.073,0.106,0.104     c0.033,0.039,0.068,0.075,0.106,0.104c0.033,0.041,0.069,0.076,0.107,0.107c0.032,0.039,0.067,0.074,0.105,0.105     c0.033,0.039,0.069,0.075,0.108,0.106c0.033,0.039,0.068,0.075,0.106,0.104c0.033,0.041,0.068,0.076,0.106,0.106     c0.033,0.04,0.068,0.075,0.106,0.106c0.033,0.039,0.068,0.074,0.106,0.105c0.033,0.039,0.068,0.074,0.105,0.105     c0.033,0.039,0.069,0.076,0.107,0.106c0.033,0.039,0.068,0.075,0.106,0.106c0.033,0.039,0.068,0.074,0.106,0.105     c0.033,0.039,0.069,0.075,0.106,0.105c0.033,0.04,0.069,0.076,0.107,0.107c0.032,0.039,0.067,0.073,0.105,0.104     c0.033,0.04,0.069,0.076,0.107,0.107c0.033,0.039,0.068,0.074,0.106,0.105c0.033,0.039,0.068,0.075,0.106,0.105     c0.033,0.039,0.069,0.076,0.107,0.105c0.033,0.04,0.069,0.076,0.107,0.107c0.032,0.037,0.067,0.074,0.104,0.104     c0.033,0.04,0.069,0.077,0.108,0.108c0.032,0.038,0.067,0.073,0.104,0.104c0.033,0.04,0.069,0.076,0.107,0.107     c0.033,0.039,0.068,0.075,0.106,0.106c0.033,0.039,0.068,0.074,0.106,0.104c0.033,0.04,0.069,0.075,0.107,0.106     c0.032,0.039,0.067,0.074,0.104,0.104c0.034,0.04,0.07,0.077,0.108,0.108c0.033,0.039,0.069,0.074,0.107,0.104     c0.032,0.039,0.067,0.075,0.105,0.104c0.033,0.041,0.068,0.076,0.106,0.106c0.033,0.04,0.069,0.076,0.108,0.106     c0.032,0.039,0.067,0.076,0.105,0.105c0.033,0.04,0.069,0.076,0.108,0.107c0.032,0.039,0.067,0.074,0.104,0.104     c0.033,0.04,0.069,0.076,0.107,0.107c0.033,0.04,0.069,0.076,0.107,0.105c0.032,0.039,0.067,0.075,0.105,0.105     c0.033,0.04,0.069,0.076,0.107,0.105c0.033,0.041,0.069,0.076,0.107,0.107c0.033,0.039,0.068,0.075,0.106,0.105     c0.033,0.039,0.068,0.076,0.106,0.105c0.033,0.039,0.068,0.075,0.106,0.105c0.034,0.041,0.07,0.076,0.108,0.107     c0.032,0.038,0.067,0.074,0.104,0.104c0.033,0.039,0.069,0.076,0.107,0.107c0.033,0.039,0.068,0.075,0.106,0.105     c0.033,0.039,0.069,0.076,0.107,0.107c0.033,0.038,0.069,0.074,0.107,0.105c0.033,0.039,0.068,0.074,0.106,0.104     c0.032,0.041,0.067,0.076,0.106,0.106c0.031,0.04,0.067,0.075,0.105,0.106c0.031,0.039,0.066,0.075,0.105,0.105     c0.032,0.04,0.067,0.076,0.105,0.105c0.033,0.041,0.068,0.076,0.105,0.106c0.033,0.041,0.07,0.077,0.109,0.108     c0.031,0.037,0.064,0.072,0.104,0.103c0.033,0.041,0.068,0.078,0.107,0.109c0.033,0.038,0.068,0.075,0.106,0.104     c0.032,0.039,0.067,0.075,0.106,0.106c0.031,0.039,0.066,0.075,0.104,0.104c0.032,0.039,0.067,0.075,0.104,0.105     c0.033,0.041,0.07,0.078,0.109,0.109c0.031,0.039,0.066,0.073,0.104,0.104c0.033,0.04,0.068,0.076,0.106,0.107     c0.033,0.039,0.067,0.074,0.104,0.104c0.033,0.04,0.07,0.077,0.108,0.108c0.033,0.039,0.067,0.074,0.106,0.104     c0.033,0.039,0.068,0.075,0.104,0.104c0.033,0.039,0.068,0.076,0.106,0.106c0.033,0.04,0.068,0.076,0.107,0.107     c0.031,0.038,0.066,0.073,0.104,0.104c0.033,0.039,0.068,0.075,0.107,0.105c0.031,0.04,0.066,0.074,0.104,0.105     c0.032,0.041,0.069,0.076,0.106,0.107c0.033,0.039,0.068,0.075,0.106,0.105c0.033,0.039,0.069,0.076,0.106,0.106     c0.033,0.039,0.067,0.074,0.104,0.104c0.033,0.041,0.069,0.076,0.108,0.108c0.031,0.038,0.066,0.073,0.104,0.103     c0.033,0.041,0.069,0.078,0.107,0.108c0.033,0.039,0.068,0.075,0.105,0.104c0.033,0.041,0.068,0.076,0.106,0.106     c0.032,0.04,0.069,0.076,0.106,0.106c0.032,0.04,0.068,0.076,0.106,0.107c0.032,0.039,0.067,0.074,0.104,0.104     c0.033,0.039,0.068,0.075,0.106,0.104c0.033,0.041,0.069,0.077,0.106,0.108c0.033,0.039,0.068,0.074,0.105,0.104     c0.033,0.039,0.068,0.076,0.105,0.105c0.033,0.04,0.069,0.076,0.107,0.107c0.032,0.039,0.067,0.074,0.105,0.104     c0.033,0.039,0.068,0.075,0.105,0.106c0.033,0.039,0.069,0.076,0.107,0.106c0.031,0.039,0.066,0.074,0.105,0.105     c0.032,0.038,0.067,0.075,0.105,0.106c0.033,0.038,0.068,0.074,0.105,0.104c0.033,0.04,0.069,0.075,0.107,0.106     c0.031,0.039,0.066,0.074,0.104,0.104c0.034,0.041,0.07,0.077,0.109,0.108c0.031,0.039,0.066,0.073,0.104,0.104     c0.033,0.041,0.07,0.078,0.109,0.109c0.031,0.037,0.066,0.072,0.104,0.104c0.033,0.04,0.068,0.077,0.107,0.107     c0.032,0.039,0.067,0.076,0.105,0.105c0.033,0.04,0.068,0.076,0.107,0.107c0.031,0.039,0.067,0.074,0.104,0.105     c0.032,0.039,0.067,0.075,0.106,0.105c0.032,0.04,0.068,0.076,0.106,0.107c0.033,0.039,0.067,0.074,0.106,0.104     c0.031,0.039,0.066,0.075,0.104,0.104c0.033,0.041,0.067,0.076,0.106,0.106c0.033,0.04,0.067,0.076,0.105,0.106     c0.033,0.039,0.068,0.076,0.105,0.105c0.033,0.04,0.07,0.076,0.107,0.107c0.033,0.039,0.068,0.074,0.106,0.104     c0.032,0.04,0.067,0.076,0.106,0.106c0.031,0.039,0.066,0.074,0.104,0.105c0.032,0.039,0.067,0.075,0.106,0.106     c0.032,0.039,0.067,0.075,0.105,0.104c0.033,0.041,0.068,0.076,0.107,0.107c0.031,0.039,0.066,0.074,0.104,0.104     c0.033,0.041,0.068,0.078,0.107,0.108c0.033,0.039,0.068,0.075,0.105,0.104c0.033,0.041,0.068,0.076,0.107,0.106     c0.031,0.039,0.066,0.074,0.104,0.104c0.033,0.039,0.068,0.076,0.107,0.106c0.031,0.04,0.068,0.076,0.105,0.107     c0.033,0.038,0.069,0.075,0.107,0.106c0.031,0.038,0.066,0.073,0.104,0.104c0.033,0.04,0.069,0.075,0.108,0.106     c0.032,0.039,0.067,0.074,0.104,0.104c0.032,0.04,0.068,0.075,0.106,0.106c0.032,0.039,0.067,0.075,0.104,0.105     c0.033,0.04,0.069,0.076,0.107,0.107c0.033,0.039,0.068,0.074,0.105,0.104c0.033,0.04,0.068,0.076,0.106,0.106     c0.033,0.039,0.068,0.074,0.104,0.104c0.033,0.04,0.068,0.076,0.107,0.106c0.032,0.039,0.068,0.076,0.105,0.105     c0.033,0.04,0.068,0.076,0.105,0.106c0.033,0.04,0.069,0.075,0.106,0.106c0.032,0.039,0.067,0.075,0.106,0.105     c0.032,0.04,0.068,0.076,0.106,0.107c0.032,0.039,0.067,0.074,0.106,0.104c0.031,0.039,0.067,0.075,0.105,0.106     c0.032,0.039,0.066,0.074,0.105,0.104c0.033,0.04,0.067,0.076,0.105,0.106c0.033,0.039,0.068,0.076,0.105,0.105     c0.033,0.04,0.068,0.076,0.106,0.105c0.033,0.041,0.069,0.076,0.107,0.107c0.032,0.039,0.067,0.075,0.106,0.106     c0.031,0.038,0.066,0.073,0.104,0.104c0.033,0.041,0.068,0.078,0.107,0.109c0.032,0.038,0.067,0.073,0.104,0.104     c0.032,0.039,0.067,0.076,0.106,0.106c0.032,0.04,0.068,0.076,0.106,0.106c0.033,0.039,0.067,0.076,0.106,0.106     c0.033,0.039,0.066,0.074,0.104,0.104c0.033,0.041,0.069,0.076,0.108,0.107c0.031,0.039,0.066,0.074,0.104,0.104     c0.033,0.041,0.068,0.076,0.105,0.106c0.033,0.04,0.068,0.076,0.106,0.106c0.033,0.039,0.068,0.076,0.106,0.105     c0.033,0.04,0.068,0.076,0.105,0.106c0.033,0.04,0.069,0.075,0.107,0.106c0.033,0.039,0.068,0.075,0.105,0.105     c0.033,0.039,0.068,0.074,0.105,0.105c0.033,0.039,0.068,0.075,0.105,0.105c0.033,0.04,0.068,0.076,0.106,0.105     c0.033,0.041,0.067,0.076,0.106,0.106c0.033,0.04,0.067,0.076,0.105,0.106c0.033,0.039,0.069,0.076,0.107,0.106     c0.033,0.039,0.068,0.075,0.105,0.104c0.032,0.039,0.067,0.076,0.105,0.107c0.033,0.038,0.068,0.074,0.105,0.105     c0.033,0.039,0.069,0.074,0.107,0.105c0.031,0.039,0.066,0.075,0.105,0.105c0.032,0.04,0.067,0.076,0.106,0.107     c0.032,0.039,0.067,0.074,0.104,0.104c0.032,0.04,0.068,0.076,0.106,0.106c0.033,0.039,0.067,0.074,0.104,0.104     c0.035,0.041,0.07,0.077,0.108,0.108c0.032,0.037,0.067,0.072,0.104,0.104c0.033,0.04,0.068,0.077,0.107,0.108     c0.032,0.038,0.067,0.075,0.105,0.104c0.033,0.04,0.068,0.076,0.105,0.106c0.033,0.04,0.069,0.077,0.108,0.106     c0.032,0.039,0.065,0.074,0.104,0.104c0.032,0.04,0.069,0.077,0.108,0.108c0.032,0.039,0.067,0.073,0.104,0.104     c0.032,0.04,0.067,0.076,0.105,0.106c0.033,0.039,0.068,0.076,0.105,0.105c0.033,0.04,0.068,0.076,0.106,0.105     c0.033,0.041,0.069,0.078,0.108,0.107c0.031,0.039,0.066,0.074,0.104,0.104c0.033,0.041,0.068,0.076,0.107,0.107     c0.031,0.039,0.066,0.075,0.105,0.105c0.032,0.04,0.067,0.076,0.105,0.105c0.033,0.041,0.068,0.076,0.105,0.106     c0.033,0.04,0.069,0.075,0.107,0.106c0.031,0.039,0.066,0.074,0.105,0.105c0.032,0.04,0.068,0.076,0.106,0.107     c0.033,0.039,0.067,0.074,0.104,0.104c0.033,0.039,0.068,0.074,0.105,0.104c0.033,0.039,0.068,0.076,0.107,0.106     c0.031,0.04,0.067,0.076,0.104,0.106c0.033,0.039,0.069,0.076,0.106,0.106c0.033,0.039,0.068,0.075,0.106,0.105     c0.033,0.04,0.068,0.075,0.106,0.106c0.033,0.039,0.066,0.074,0.105,0.104c0.032,0.04,0.068,0.077,0.106,0.108     c0.032,0.039,0.067,0.073,0.104,0.104c0.033,0.04,0.068,0.076,0.106,0.105c0.032,0.041,0.067,0.076,0.106,0.106     c0.033,0.04,0.067,0.076,0.105,0.106c0.033,0.039,0.068,0.076,0.107,0.106c0.031,0.039,0.067,0.075,0.104,0.104     c0.033,0.041,0.069,0.076,0.106,0.107c0.033,0.039,0.068,0.074,0.105,0.104c0.033,0.041,0.068,0.076,0.105,0.106     c0.43,0.517,1.261,0.281,3.263-0.485c2-1,3.156-1.01,3-2c-0.204-1.271-0.533-3.01-0.78-4.525c0.035,0.038,0.071,0.07,0.106,0.105     c0.034,0.037,0.067,0.066,0.103,0.103c0.035,0.037,0.07,0.069,0.105,0.104c0.035,0.037,0.07,0.07,0.105,0.105     c0.035,0.039,0.072,0.073,0.108,0.109c0.034,0.037,0.069,0.068,0.104,0.104c0.035,0.038,0.07,0.071,0.106,0.107     c0.035,0.037,0.071,0.07,0.106,0.105c0.035,0.038,0.07,0.071,0.105,0.106c0.036,0.039,0.072,0.071,0.107,0.108     s0.07,0.069,0.106,0.104c0.034,0.037,0.069,0.069,0.104,0.104c0.035,0.037,0.07,0.07,0.105,0.105     c0.035,0.038,0.071,0.07,0.106,0.105c0.034,0.039,0.071,0.071,0.106,0.106c0.034,0.039,0.07,0.071,0.106,0.106     c0.036,0.039,0.071,0.072,0.108,0.107c0.033,0.038,0.068,0.069,0.104,0.104c0.035,0.039,0.07,0.07,0.105,0.105     c0.035,0.038,0.07,0.071,0.105,0.106c0.035,0.038,0.071,0.071,0.105,0.106c0.035,0.037,0.07,0.069,0.104,0.104     c0.037,0.04,0.074,0.074,0.111,0.111c0.034,0.037,0.069,0.068,0.104,0.104c0.034,0.039,0.07,0.07,0.106,0.107     c0.032,0.035,0.067,0.066,0.103,0.102c0.036,0.04,0.073,0.075,0.11,0.111c0.034,0.037,0.067,0.068,0.103,0.104     c0.037,0.038,0.072,0.072,0.108,0.107c0.034,0.037,0.069,0.07,0.104,0.104c0.035,0.038,0.072,0.072,0.107,0.108     c0.035,0.037,0.071,0.07,0.107,0.107c0.035,0.037,0.07,0.069,0.105,0.104c0.034,0.037,0.069,0.069,0.104,0.104     c0.034,0.037,0.071,0.07,0.106,0.105c0.034,0.038,0.07,0.07,0.105,0.105c0.035,0.039,0.07,0.071,0.105,0.106     c0.035,0.039,0.071,0.071,0.107,0.106c0.036,0.039,0.072,0.072,0.107,0.108c0.035,0.037,0.069,0.068,0.104,0.103     c0.035,0.039,0.071,0.072,0.106,0.106c0.035,0.038,0.07,0.071,0.105,0.106c0.745,0.805,1.557,1.066,2.314,1.066c4,0,5-1,5-2     c0-0.228-0.002-0.521-0.006-0.845c0.02,0.021,0.043,0.04,0.063,0.062c0.029,0.039,0.072,0.072,0.106,0.107     c0.029,0.039,0.072,0.069,0.105,0.104c0.029,0.039,0.071,0.07,0.105,0.105c0.029,0.04,0.072,0.071,0.106,0.108     c0.029,0.038,0.072,0.069,0.107,0.106c0.028,0.037,0.069,0.068,0.104,0.104c0.028,0.039,0.071,0.07,0.105,0.105     c0.059,0.078,0.135,0.146,0.213,0.213c0.029,0.039,0.072,0.07,0.105,0.106c0.029,0.039,0.072,0.071,0.107,0.106     c0.029,0.039,0.072,0.07,0.105,0.106c0.029,0.038,0.072,0.069,0.105,0.104c0.029,0.039,0.072,0.07,0.107,0.106     c0.027,0.039,0.07,0.07,0.104,0.106c0.029,0.039,0.072,0.07,0.107,0.105c0.028,0.039,0.071,0.07,0.106,0.106     c0.027,0.039,0.07,0.069,0.104,0.104c0.028,0.039,0.071,0.07,0.106,0.106c0.028,0.039,0.071,0.069,0.105,0.106     c0.029,0.039,0.072,0.069,0.105,0.105c0.03,0.04,0.074,0.07,0.107,0.107c0.029,0.037,0.071,0.067,0.104,0.104     c0.031,0.04,0.074,0.072,0.108,0.109c0.029,0.039,0.072,0.068,0.104,0.104c0.029,0.039,0.072,0.07,0.106,0.105     c0.029,0.039,0.072,0.07,0.106,0.106c0.029,0.039,0.072,0.07,0.105,0.106c0.03,0.04,0.073,0.07,0.107,0.107     c0.029,0.039,0.072,0.068,0.105,0.104c0.028,0.039,0.07,0.068,0.104,0.105c0.03,0.039,0.073,0.071,0.108,0.107     c0.028,0.039,0.07,0.068,0.104,0.105c0.029,0.039,0.071,0.069,0.104,0.105c0.029,0.038,0.072,0.07,0.106,0.105     c0.029,0.039,0.073,0.072,0.108,0.107c0.058,0.077,0.134,0.145,0.211,0.21c0.029,0.039,0.072,0.071,0.105,0.107     c0.03,0.04,0.073,0.071,0.108,0.108c0.028,0.037,0.069,0.067,0.104,0.104c0.028,0.039,0.071,0.07,0.105,0.107     c0.029,0.039,0.072,0.069,0.105,0.105c0.029,0.039,0.072,0.07,0.106,0.105c0.03,0.041,0.073,0.071,0.106,0.107     c0.029,0.039,0.072,0.069,0.105,0.104c0.029,0.039,0.072,0.07,0.105,0.106c0.029,0.039,0.072,0.07,0.106,0.106     c0.519,0.691,1.902,0.937,2.773,0.68C77.77,78.952,79.246,78.298,79.02,77.516z" fill="url(#SVGID_4_)"/></g></g></g><path d="M40.988,20.953c-0.252-0.867-1.041-3.723-1.813-4c-1.375,0-2.614-0.011-4,0  c-0.489,0.003-2.012,2.581-2.188,3c-0.964,2.314-1.313,3.596-2,6c-0.724,2.54-1.409,5.221-2,7.999c-0.265-0.443-0.821-1.662-1-1.999  c-1.31-2.508-1.688-4.497-3-7c-1.321-2.519-1.162-3.468-4-3c-0.706,0.114-2.351,0.708-3,1c-0.323,0.146-1,0.75-1,2  c0,5.875,0,11.374,1,16.999c0.612,4.011,0.167,4.469,4,3c0.191-0.074-0.191,0.08,0,0c2-1,3.156-1.011,3-2  c-0.275-1.713-0.778-4.279-1-6c0.079-0.007-0.081,0.006,0,0c1,0,2.891,3.096,4,5c0.91,1.551,2,2,3,2c4,0,5-1,5-2s-0.043-3.236,0-4  c0-2-0.094-7.284,0-7.999c1.734,5.546,3.388,10.656,5,15.999c0.279,0.934,1.943,1.293,2.938,1c1.813,0,3.291-0.654,3.063-1.438  c-2.002-6.889-2.768-11.219-4.002-16.562C42.285,25.901,41.988,24.953,40.988,20.953z" fill="#FFFFFF" id="M_1_"/></svg>